<svg xmlns="http://www.w3.org/2000/svg" style="display:none">
  <!-- 数据库图标 -->
  <symbol id="icon-database" viewBox="0 0 24 24">
    <path fill="currentColor" d="M12 3C7.58 3 4 4.79 4 7v3c0 2.21 3.58 4 8 4s8-1.79 8-4V7c0-2.21-3.58-4-8-4m0 2c3.87 0 6 1.5 6 2s-2.13 2-6 2-6-1.5-6-2 2.13-2 6-2m-8 9v3c0 2.21 3.58 4 8 4s8-1.79 8-4v-3c0 1.38-.91 2.63-2.42 3.45C15.83 16.38 14 17 12 17s-3.83-.62-5.58-1.55C4.91 14.63 4 13.38 4 12m0 5v3c0 2.21 3.58 4 8 4s8-1.79 8-4v-3c0 1.38-.91 2.63-2.42 3.45C15.83 21.38 14 22 12 22s-3.83-.62-5.58-1.55C4.91 19.63 4 18.38 4 17Z"/>
  </symbol>

  <!-- 首页图标 -->
  <symbol id="icon-home" viewBox="0 0 24 24">
    <path fill="currentColor" d="M10 20v-6h4v6h5v-8h3L12 3 2 12h3v8z"/>
  </symbol>

  <!-- 退出图标 -->
  <symbol id="icon-sign-out" viewBox="0 0 24 24">
    <path fill="currentColor" d="M5 3h6a3 3 0 0 1 3 3v4h-1V6a2 2 0 0 0-2-2H5a2 2 0 0 0-2 2v13a2 2 0 0 0 2 2h6a2 2 0 0 0 2-2v-4h1v4a3 3 0 0 1-3 3H5a3 3 0 0 1-3-3V6a3 3 0 0 1 3-3m3 9h11.25L16 8.75l.66-.75 4.5 4.5-4.5 4.5-.66-.75L19.25 13H8v-1z"/>
  </symbol>

  <!-- 列表图标 -->
  <symbol id="icon-list-alt" viewBox="0 0 24 24">
    <path fill="currentColor" d="M3 4h2v2H3V4m4 0h14v2H7V4M3 9h2v2H3V9m4 0h14v2H7V9m-4 5h2v2H3v-2m4 0h14v2H7v-2m-4 5h2v2H3v-2m4 0h14v2H7v-2Z"/>
  </symbol>

  <!-- 警告图标 -->
  <symbol id="icon-exclamation-circle" viewBox="0 0 24 24">
    <path fill="currentColor" d="M12 2C6.48 2 2 6.48 2 12s4.48 10 10 10 10-4.48 10-10S17.52 2 12 2zm1 15h-2v-2h2v2zm0-4h-2V7h2v6z"/>
  </symbol>

  <!-- 日历图标 -->
  <symbol id="icon-calendar" viewBox="0 0 24 24">
    <path fill="currentColor" d="M19 4h-1V2h-2v2H8V2H6v2H5c-1.11 0-1.99.9-1.99 2L3 20a2 2 0 0 0 2 2h14c1.1 0 2-.9 2-2V6c0-1.1-.9-2-2-2zm0 16H5V10h14v10zM5 8V6h14v2H5zm2 4h10v2H7v-2z"/>
  </symbol>

  <!-- 上传图标 -->
  <symbol id="icon-upload" viewBox="0 0 24 24">
    <path fill="currentColor" d="M9 16h6v-6h4l-7-7-7 7h4zm-4 2h14v2H5z"/>
  </symbol>

  <!-- 云上传图标 -->
  <symbol id="icon-cloud-upload" viewBox="0 0 24 24">
    <path fill="currentColor" d="M19.35 10.04A7.49 7.49 0 0 0 12 4C9.11 4 6.6 5.64 5.35 8.04A5.994 5.994 0 0 0 0 14c0 3.31 2.69 6 6 6h13c2.76 0 5-2.24 5-5 0-2.64-2.05-4.78-4.65-4.96zM14 13v4h-4v-4H7l5-5 5 5h-3z"/>
  </symbol>

  <!-- 信息图标 -->
  <symbol id="icon-info-circle" viewBox="0 0 24 24">
    <path fill="currentColor" d="M12 2C6.48 2 2 6.48 2 12s4.48 10 10 10 10-4.48 10-10S17.52 2 12 2zm1 15h-2v-6h2v6zm0-8h-2V7h2v2z"/>
  </symbol>

  <!-- Excel文件图标 -->
  <symbol id="icon-file-excel-o" viewBox="0 0 24 24">
    <path fill="currentColor" d="M14 2H6c-1.1 0-2 .9-2 2v16c0 1.1.9 2 2 2h12c1.1 0 2-.9 2-2V8l-6-6zm-1 13l-2 2.5L9 15H7.5l2.25 3L7.5 21H9l2-2.5 2 2.5h1.5l-2.25-3 2.25-3H13zM13 9V3.5L18.5 9H13z"/>
  </symbol>

  <!-- 关闭图标 -->
  <symbol id="icon-times" viewBox="0 0 24 24">
    <path fill="currentColor" d="M19 6.41L17.59 5 12 10.59 6.41 5 5 6.41 10.59 12 5 17.59 6.41 19 12 13.41 17.59 19 19 17.59 13.41 12z"/>
  </symbol>

  <!-- 刷新图标 -->
  <symbol id="icon-refresh" viewBox="0 0 24 24">
    <path fill="currentColor" d="M17.65 6.35A7.958 7.958 0 0 0 12 4c-4.42 0-7.99 3.58-7.99 8s3.57 8 7.99 8c3.73 0 6.84-2.55 7.73-6h-2.08A5.99 5.99 0 0 1 12 18c-3.31 0-6-2.69-6-6s2.69-6 6-6c1.66 0 3.14.69 4.22 1.78L13 11h7V4l-2.35 2.35z"/>
  </symbol>

  <!-- 表格图标 -->
  <symbol id="icon-table" viewBox="0 0 24 24">
    <path fill="currentColor" d="M3 3h18v18H3V3zm16 16V5H5v14h14zM7 7h10v2H7V7zm0 4h10v2H7v-2zm0 4h10v2H7v-2z"/>
  </symbol>

  <!-- 下载图标 -->
  <symbol id="icon-download" viewBox="0 0 24 24">
    <path fill="currentColor" d="M19 9h-4V3H9v6H5l7 7 7-7zM5 18v2h14v-2H5z"/>
  </symbol>

  <!-- 垃圾桶图标 -->
  <symbol id="icon-trash" viewBox="0 0 24 24">
    <path fill="currentColor" d="M6 19c0 1.1.9 2 2 2h8c1.1 0 2-.9 2-2V7H6v12zM19 4h-3.5l-1-1h-5l-1 1H5v2h14V4z"/>
  </symbol>

  <!-- 编辑图标 -->
  <symbol id="icon-edit" viewBox="0 0 24 24">
    <path fill="currentColor" d="M3 17.25V21h3.75L17.81 9.94l-3.75-3.75L3 17.25zM20.71 7.04a.996.996 0 0 0 0-1.41l-2.34-2.34a.996.996 0 0 0-1.41 0l-1.83 1.83 3.75 3.75 1.83-1.83z"/>
  </symbol>

  <!-- 饼图图标 -->
  <symbol id="icon-pie-chart" viewBox="0 0 24 24">
    <path fill="currentColor" d="M11 2v20c-5.07-.5-9-4.79-9-10s3.93-9.5 9-10m2.03 0v8.99H22c-.47-4.74-4.24-8.52-8.97-8.99m0 11.01V22c4.74-.47 8.5-4.25 8.97-8.99h-8.97z"/>
  </symbol>

  <!-- 设置图标 -->
  <symbol id="icon-cog" viewBox="0 0 24 24">
    <path fill="currentColor" d="M12 15.5A3.5 3.5 0 0 1 8.5 12 3.5 3.5 0 0 1 12 8.5a3.5 3.5 0 0 1 3.5 3.5 3.5 3.5 0 0 1-3.5 3.5m7.43-2.53c.04-.32.07-.64.07-.97 0-.33-.03-.66-.07-1l2.11-1.63c.19-.15.24-.42.12-.64l-2-3.46c-.12-.22-.39-.31-.61-.22l-2.49 1c-.52-.39-1.06-.73-1.69-.98l-.37-2.65A.506.506 0 0 0 14 2h-4c-.25 0-.46.18-.5.42l-.37 2.65c-.63.25-1.17.59-1.69.98l-2.49-1c-.22-.09-.49 0-.61.22l-2 3.46c-.13.22-.07.49.12.64L4.57 11c-.04.34-.07.67-.07 1 0 .33.03.65.07.97l-2.11 1.66c-.19.15-.25.42-.12.64l2 3.46c.12.22.39.3.61.22l2.49-1.01c.52.4 1.06.74 1.69.99l.37 2.65c.04.24.25.42.5.42h4c.25 0 .46-.18.5-.42l.37-2.65c.63-.26 1.17-.59 1.69-.99l2.49 1.01c.22.08.49 0 .61-.22l2-3.46c.12-.22.07-.49-.12-.64l-2.11-1.66z"/>
  </symbol>

  <!-- 菜单图标 -->
  <symbol id="icon-bars" viewBox="0 0 24 24">
    <path fill="currentColor" d="M3 18h18v-2H3v2zm0-5h18v-2H3v2zm0-7v2h18V6H3z"/>
  </symbol>

  <!-- 加载图标 -->
  <symbol id="icon-spinner" viewBox="0 0 24 24">
    <path fill="currentColor" d="M12 4V2A10 10 0 0 0 2 12h2a8 8 0 0 1 8-8z"/>
  </symbol>

  <!-- 上箭头图标 -->
  <symbol id="icon-arrow-up" viewBox="0 0 24 24">
    <path fill="currentColor" d="M7 14l5-5 5 5z"/>
  </symbol>

  <!-- 卫星图标 -->
  <symbol id="icon-satellite" viewBox="0 0 24 24">
    <path fill="currentColor" d="M20 10V8h-4V4h-2v4h-4v2h4v4h2v-4h4zm-2.5 6.5L15 14l-2 2-3-3-5 5h13l-2.5-2.5zM1 18v3h3a3 3 0 0 0-3-3zm0-4v2a5 5 0 0 1 5 5h2a7 7 0 0 0-7-7zm0-4v2a9 9 0 0 1 9 9h2c0-6.08-4.92-11-11-11z"/>
  </symbol>

  <!-- 用户组图标 -->
  <symbol id="icon-users" viewBox="0 0 24 24">
    <path fill="currentColor" d="M16 11c1.66 0 2.99-1.34 2.99-3S17.66 5 16 5c-1.66 0-3 1.34-3 3s1.34 3 3 3zm-8 0c1.66 0 2.99-1.34 2.99-3S9.66 5 8 5C6.34 5 5 6.34 5 8s1.34 3 3 3zm0 2c-2.33 0-7 1.17-7 3.5V19h14v-2.5c0-2.33-4.67-3.5-7-3.5zm8 0c-.29 0-.62.02-.97.05 1.16.84 1.97 1.97 1.97 3.45V19h6v-2.5c0-2.33-4.67-3.5-7-3.5z"/>
  </symbol>

  <!-- 地图标记图标 -->
  <symbol id="icon-map-marker" viewBox="0 0 24 24">
    <path fill="currentColor" d="M12 2C8.13 2 5 5.13 5 9c0 5.25 7 13 7 13s7-7.75 7-13c0-3.87-3.13-7-7-7zm0 9.5a2.5 2.5 0 0 1 0-5 2.5 2.5 0 0 1 0 5z"/>
  </symbol>

  <!-- 下拉箭头图标 -->
  <symbol id="icon-chevron-down" viewBox="0 0 24 24">
    <path fill="currentColor" d="M7 10l5 5 5-5z"/>
  </symbol>

  <!-- 关闭圆圈图标 -->
  <symbol id="icon-times-circle" viewBox="0 0 24 24">
    <path fill="currentColor" d="M12 2C6.47 2 2 6.47 2 12s4.47 10 10 10 10-4.47 10-10S17.53 2 12 2zm5 13.59L15.59 17 12 13.41 8.41 17 7 15.59 10.59 12 7 8.41 8.41 7 12 10.59 15.59 7 17 8.41 13.41 12 17 15.59z"/>
  </symbol>

  <!-- 折线图图标 -->
  <symbol id="icon-line-chart" viewBox="0 0 24 24">
    <path fill="currentColor" d="M3.5 18.49l6-6.01 4 4L22 6.92l-1.41-1.41-7.09 7.97-4-4L2 16.99z"/>
  </symbol>

  <!-- 警告三角图标 -->
  <symbol id="icon-exclamation-triangle" viewBox="0 0 24 24">
    <path fill="currentColor" d="M1 21h22L12 2 1 21zm12-3h-2v-2h2v2zm0-4h-2v-4h2v4z"/>
  </symbol>

  <!-- 日历勾选图标 -->
  <symbol id="icon-calendar-check-o" viewBox="0 0 24 24">
    <path fill="currentColor" d="M19 4h-1V2h-2v2H8V2H6v2H5c-1.11 0-1.99.9-1.99 2L3 20a2 2 0 0 0 2 2h14c1.1 0 2-.9 2-2V6c0-1.1-.9-2-2-2zm0 16H5V10h14v10zm-2.5-7.5L15 14l-4 4-2.5-2.5L10 14l1.5 1.5 2.5-2.5z"/>
  </symbol>

  <!-- 计算器图标 -->
  <symbol id="icon-calculator" viewBox="0 0 24 24">
    <path fill="currentColor" d="M7 2h10a2 2 0 0 1 2 2v16a2 2 0 0 1-2 2H7a2 2 0 0 1-2-2V4a2 2 0 0 1 2-2m0 2v4h10V4H7m0 6v2h2v-2H7m4 0v2h2v-2h-2m4 0v2h2v-2h-2m-8 4v2h2v-2H7m4 0v2h2v-2h-2m4 0v2h2v-2h-2m-8 4v2h2v-2H7m4 0v2h2v-2h-2m4 0v2h2v-2h-2Z"/>
  </symbol>

  <!-- 勾选图标 -->
  <symbol id="icon-check-circle" viewBox="0 0 24 24">
    <path fill="currentColor" d="M12 2C6.48 2 2 6.48 2 12s4.48 10 10 10 10-4.48 10-10S17.52 2 12 2zm-2 15l-5-5 1.41-1.41L10 14.17l7.59-7.59L19 8l-9 9z"/>
  </symbol>

  <!-- 下箭头图标 -->
  <symbol id="icon-arrow-down" viewBox="0 0 24 24">
    <path fill="currentColor" d="M7 10l5 5 5-5z"/>
  </symbol>

  <!-- 火箭图标 -->
  <symbol id="icon-rocket" viewBox="0 0 24 24">
    <path fill="currentColor" d="M9.19 6.35c-2.04 2.29-3.44 5.58-3.57 5.89L2 10.69l4.05-4.05c.47-.47 1.15-.68 1.81-.55l1.33 1.26M11.17 17s3.74-1.55 5.89-3.7c5.4-5.4 4.5-9.62 4.21-10.57-.95-.3-5.17-1.19-10.57 4.21C8.55 9.09 7 12.83 7 12.83L11.17 17m6.48-2.19c-2.29 2.04-5.58 3.44-5.89 3.57L13.31 22l4.05-4.05c.47-.47.68-1.15.55-1.81l-1.26-1.33M9 18c0 .83-.34 1.58-.88 2.12C6.94 21.3 2 22 2 22s.7-4.94 1.88-6.12A2.996 2.996 0 0 1 9 18Z"/>
  </symbol>

  <!-- 上箭头(收起)图标 -->
  <symbol id="icon-chevron-up" viewBox="0 0 24 24">
    <path fill="currentColor" d="M7 14l5-5 5 5z"/>
  </symbol>

  <!-- 柱状图图标 -->
  <symbol id="icon-bar-chart" viewBox="0 0 24 24">
    <path fill="currentColor" d="M5 9.2h3V19H5V9.2zM10.6 5h2.8v14h-2.8V5zm5.6 8H19v6h-2.8v-6z"/>
  </symbol>
</svg>
